<svg width="46" height="58" viewBox="0 0 46 58" fill="none" xmlns="http://www.w3.org/2000/svg">
<g clip-path="url(#clip0_16_2)">
<path d="M15.4377 0.154938H15.4354C12.564 0.154938 10.2362 2.51054 10.2362 5.41631V52.7386C10.2362 55.6444 12.564 58 15.4354 58H15.4377C18.3092 58 20.6369 55.6444 20.6369 52.7386V5.41631C20.6369 2.51054 18.3092 0.154938 15.4377 0.154938Z" fill="#57BD7F"/>
<path d="M37.1258 11.1421L23.1377 25.2974C21.1073 27.3521 21.1073 30.6834 23.1377 32.7381L23.1393 32.7398C25.1698 34.7944 28.4617 34.7944 30.4921 32.7398L44.4803 18.5844C46.5107 16.5297 46.5107 13.1984 44.4803 11.1437L44.4786 11.1421C42.4482 9.08738 39.1563 9.08738 37.1258 11.1421Z" fill="#57BD7F"/>
<path d="M23.1366 25.415L23.135 25.4166C21.1046 27.4713 21.1046 30.8026 23.135 32.8573L37.1232 47.0127C39.1536 49.0673 42.4455 49.0673 44.476 47.0127L44.4776 47.011C46.508 44.9563 46.508 41.625 44.4776 39.5703L30.4895 25.415C28.459 23.3603 25.1671 23.3603 23.1366 25.415Z" fill="#57BD7F"/>
<path d="M26.4989 0H5.19922C2.32777 0 0 2.3556 0 5.26137V5.26369C0 8.16946 2.32777 10.5251 5.19922 10.5251H26.4989C29.3704 10.5251 31.6981 8.16946 31.6981 5.26369V5.26137C31.6981 2.3556 29.3704 0 26.4989 0Z" fill="#57BD7F"/>
</g>
<defs>
<clipPath id="clip0_16_2">
<rect width="46" height="58" fill="white"/>
</clipPath>
</defs>
</svg>
